<?xml version="1.0" encoding="UTF-8" standalone="no"?>
<svg
   width="36"
   height="39"
   version="1.1"
   id="svg2"
   sodipodi:docname="power.svg"
   inkscape:version="1.3.2 (091e20ef0f, 2023-11-25, custom)"
   xmlns:inkscape="http://www.inkscape.org/namespaces/inkscape"
   xmlns:sodipodi="http://sodipodi.sourceforge.net/DTD/sodipodi-0.dtd"
   xmlns="http://www.w3.org/2000/svg"
   xmlns:svg="http://www.w3.org/2000/svg">
  <defs
     id="defs2" />
  <sodipodi:namedview
     id="namedview2"
     pagecolor="#ffffff"
     bordercolor="#000000"
     borderopacity="0.25"
     inkscape:showpageshadow="2"
     inkscape:pageopacity="0.0"
     inkscape:pagecheckerboard="0"
     inkscape:deskcolor="#d1d1d1"
     inkscape:zoom="12.21875"
     inkscape:cx="14.567775"
     inkscape:cy="18.332481"
     inkscape:window-width="1920"
     inkscape:window-height="1010"
     inkscape:window-x="0"
     inkscape:window-y="44"
     inkscape:window-maximized="1"
     inkscape:current-layer="svg2" />
  <path
     style="fill:#dfdfdf;stroke-width:0.999999"
     d="m 18,0 c 1.662,0 3,1.338 3,3 v 15 c 0,1.662 -1.338,3 -3,3 -1.662,0 -3,-1.338 -3,-3 V 3 c 0,-1.662 1.338,-3 3,-3 z"
     id="path1" />
  <path
     style="fill:#dfdfdf;stroke-width:0.999999"
     d="m 27,6 c -1.656,0 -3,1.3431 -3,3 0,0.8517 0.306,1.7301 0.987,2.244 C 28.074,13.575 29.994,17.1324 30,21 30,27.627 24.627,33 18,33 11.3727,33 6,27.627 6,21 6.0072,17.1315 7.932,13.5759 11.0157,11.2413 11.6943,10.7277 11.9982,9.8499 12,9 12,7.3431 10.6569,6 9,6 8.1453,6 7.4172,6.4533 6.7617,7.002 2.5833,10.4994 0.0189,15.5511 0,21 0,30.942 8.0589,39 18,39 27.942,39 36,30.942 36,21 35.988,15.5034 33.411,10.3806 29.142,6.8994 28.512,6.3846 27.801,6 27,6 Z"
     id="path2" />
</svg>
