<?xml version="1.0" encoding="UTF-8" standalone="no"?>
<!-- Uploaded to: SVG Repo, www.svgrepo.com, Generator: SVG Repo Mixer Tools -->

<svg
   fill="#000000"
   version="1.1"
   id="Capa_1"
   width="40.914566"
   height="48"
   viewBox="0 0 1.6145399 1.89414"
   xml:space="preserve"
   sodipodi:docname="reboot.svg"
   inkscape:version="1.3.2 (091e20ef0f, 2023-11-25, custom)"
   xmlns:inkscape="http://www.inkscape.org/namespaces/inkscape"
   xmlns:sodipodi="http://sodipodi.sourceforge.net/DTD/sodipodi-0.dtd"
   xmlns="http://www.w3.org/2000/svg"
   xmlns:svg="http://www.w3.org/2000/svg"><defs
   id="defs3" /><sodipodi:namedview
   id="namedview3"
   pagecolor="#ffffff"
   bordercolor="#000000"
   borderopacity="0.25"
   inkscape:showpageshadow="2"
   inkscape:pageopacity="0.0"
   inkscape:pagecheckerboard="0"
   inkscape:deskcolor="#d1d1d1"
   inkscape:zoom="7.82"
   inkscape:cx="16.304348"
   inkscape:cy="25.831202"
   inkscape:window-width="1920"
   inkscape:window-height="1010"
   inkscape:window-x="0"
   inkscape:window-y="44"
   inkscape:window-maximized="1"
   inkscape:current-layer="Capa_1" />
<g
   id="g3"
   transform="matrix(0.05999754,0,0,0.05999754,-0.13979988,3.1370659e-5)"
   style="stroke-width:16.6673">
	<g
   id="g2"
   style="stroke-width:16.6673">
		<path
   d="m 9.635,12.041 c 3.595,-1.193 6.812,-0.585 6.812,-0.585 l 0.011,0.937 c 0.016,1.514 0.43,1.652 0.43,1.652 0.979,0.765 1.867,-0.053 1.867,-0.053 0,0 6.262,-4.61 6.426,-4.731 0.164,-0.122 1.133,-0.723 1.136,-2.299 0.001,-1.578 -1.33,-2.33 -1.33,-2.33 0,0 -5.17,-3.52 -6.212,-4.229 -1.044,-0.71 -1.629,-0.267 -1.629,-0.267 -0.768,0.502 -0.698,1.16 -0.698,1.16 v 1.84 C 10.638,4.329 6.573,7.858 6.573,7.858 0.986,12.609 2.524,19.211 2.524,19.211 c 0,0 0.014,0.296 0.58,0.296 0.643,0 0.65,-0.396 0.65,-0.396 0.266,-2.248 2.286,-5.877 5.881,-7.07 z"
   id="path1"
   style="stroke-width:16.6673" />
		<path
   d="m 29.046,12.355 c 0,0 -0.015,-0.294 -0.578,-0.294 -0.646,0 -0.65,0.396 -0.65,0.396 -0.268,2.247 -2.286,5.875 -5.882,7.07 -3.597,1.192 -6.812,0.584 -6.812,0.584 l -0.011,-0.937 c -0.015,-1.518 -0.428,-1.652 -0.428,-1.652 -0.979,-0.766 -1.869,0.053 -1.869,0.053 0,0 -6.261,4.611 -6.425,4.732 -0.165,0.121 -1.13,0.722 -1.134,2.3 -0.004,1.575 1.327,2.329 1.327,2.329 0,0 5.168,3.519 6.211,4.229 1.043,0.711 1.63,0.269 1.63,0.269 0.767,-0.504 0.698,-1.157 0.698,-1.157 v -1.843 c 5.811,-1.191 9.875,-4.724 9.875,-4.724 5.587,-4.752 4.048,-11.355 4.048,-11.355 z"
   id="path2"
   style="stroke-width:16.6673" />
	</g>
</g>
</svg>
